<?xml version="1.0" encoding="UTF-8"?>
<!DOCTYPE svg PUBLIC "-//W3C//DTD SVG 1.1//EN" "http://www.w3.org/Graphics/SVG/1.1/DTD/svg11.dtd">
<!-- Creator: CorelDRAW -->
<svg xmlns="http://www.w3.org/2000/svg" xml:space="preserve" width="30px" height="30px" shape-rendering="geometricPrecision" text-rendering="geometricPrecision" image-rendering="optimizeQuality" fill-rule="evenodd" clip-rule="evenodd"
viewBox="0 0 1.92945 1.92945"
 xmlns:xlink="http://www.w3.org/1999/xlink">
 <g id="read_x0020_more_x0020_1_x0020__x0020_-_x0020_hover">
  <metadata id="CorelCorpID_0Corel-Layer"/>
  <g id="_289198232">
   <circle id="_289201712" fill="#383431" cx="0.964723" cy="0.964723" r="0.964723"/>
   <path id="_289208384" fill="white" d="M0.658119 1.52387l0 0c-0.0298376,-0.0298376 -0.0298376,-0.0786697 0,-0.108584l0.450717 -0.450717 -0.45064 -0.450563c-0.0297607,-0.0296069 -0.0298376,-0.0785159 7.6901e-005,-0.10843l0 0c0.0298376,-0.0297607 0.0786697,-0.0297607 0.108353,0.000153802l0.504778 0.504778 0 0 0.00123042 0.00146112 0.00138422 0.00130732 0.00115351 0.00146112 0.00138422 0.00153802 0.00107661 0.00153802 -7.6901e-005 7.6901e-005 0.00130732 0.00146112 -7.6901e-005 7.6901e-005 0.00107661 0.00146112 -7.6901e-005 7.6901e-005 0.00130732 0.00153802 0 7.6901e-005 0.000922812 0.00146112 0 7.6901e-005 0.000999713 0.00161492 -7.6901e-005 0 0.000999713 0.00169182 -7.6901e-005 0 0.00107661 0.00161492 -7.6901e-005 0 0.000692109 0.00161492 0 7.6901e-005 0.000922812 0.00169182 -7.6901e-005 0 0.000845911 0.00169182 -7.6901e-005 7.6901e-005 0.000999713 0.00161492 -7.6901e-005 7.6901e-005 0.000538307 0.00169182 -7.6901e-005 7.6901e-005 0.000692109 0.00161492 -7.6901e-005 7.6901e-005 0.000538307 0.00176872 -7.6901e-005 0 0.00076901 0.00176872 0 7.6901e-005 0.000461406 0.00169182 -7.6901e-005 0 0.000538307 0.00176872 0 7.6901e-005 0.000461406 0.00176872 -7.6901e-005 7.6901e-005 0.000538307 0.00169182 0 7.6901e-005 0.000153802 0.00176872 0 0 0.000384505 0.00184562 -7.6901e-005 0 0.000230703 0.00176872 -7.6901e-005 7.6901e-005 0.000461406 0.00184562 -7.6901e-005 7.6901e-005 7.6901e-005 0.00184562 0 0 0.000230703 0.00176872 -7.6901e-005 7.6901e-005 0.000153802 0.00176872 -7.6901e-005 7.6901e-005 0.000230703 0.00169182 -7.6901e-005 7.6901e-005 -7.6901e-005 0.00176872 -7.6901e-005 0 0 0.00184562 -7.6901e-005 0 -0.000153802 0.00176872 0 7.6901e-005 0 0.00184562 -0.00107661 0.0073825 -0.000384505 0.00169182 -0.000538307 0.00192252 -0.000384505 0.00169182 -0.000538307 0.00184562 -0.000615208 0.00169182 -0.000153802 0.000153802 -0.000384505 0.00169182 -7.6901e-005 7.6901e-005 -0.000461406 0.00153802 -0.000153802 0.000153802 -0.000384505 0.00169182 -7.6901e-005 7.6901e-005 -0.000845911 0.00161492 -7.6901e-005 7.6901e-005 -0.000692109 0.00161492 -7.6901e-005 0.000153802 -0.00076901 0.00161492 -7.6901e-005 7.6901e-005 -0.000615208 0.00161492 -7.6901e-005 7.6901e-005 -0.000922812 0.00153802 -7.6901e-005 7.6901e-005 -0.000845911 0.00161492 -7.6901e-005 7.6901e-005 -0.000922812 0.00153802 0 7.6901e-005 -0.000922812 0.00153802 0 0 -0.00123042 0.00153802 -7.6901e-005 7.6901e-005 -0.000922812 0.00153802 -7.6901e-005 0 -0.00115351 0.00153802 -7.6901e-005 0 -0.000922812 0.00153802 -7.6901e-005 7.6901e-005 -0.00138422 0.00146112 0 7.6901e-005 -0.00115351 0.00138422 0 7.6901e-005 -0.00130732 0.00130732 -7.6901e-005 0 -0.00115351 0.00138422 -7.6901e-005 7.6901e-005 -0.504778 0.504778c-0.0298376,0.0298376 -0.0786697,0.0298376 -0.108507,0z"/>
  </g>
 </g>
</svg>
